HIERARCHY
ROOT root
{
	OFFSET 0.000000 0.000000 0.000000
	CHANNELS 6 Xposition Yposition Zposition Zrotation Yrotation Xrotation
	JOINT lhip
	{
		OFFSET 0.058581 -0.082280 -0.017664
		CHANNELS 3 Zrotation Yrotation Xrotation
		JOINT lknee
		{
			OFFSET 0.043451 -0.386469 0.008037
			CHANNELS 3 Zrotation Yrotation Xrotation
			JOINT lankle
			{
				OFFSET -0.014790 -0.426874 -0.037428
				CHANNELS 3 Zrotation Yrotation Xrotation
				JOINT ltoe
				{
					OFFSET 0.041054 -0.060286 0.122042
					CHANNELS 3 Zrotation Yrotation Xrotation
					End Site
					{
						OFFSET 0.000000 0.000000 0.000000
					}
				}
			}
		}
	}
	JOINT rhip
	{
		OFFSET -0.060310 -0.090513 -0.013543
		CHANNELS 3 Zrotation Yrotation Xrotation
		JOINT rknee
		{
			OFFSET -0.043257 -0.383688 -0.004843
			CHANNELS 3 Zrotation Yrotation Xrotation
			JOINT rankle
			{
				OFFSET 0.019056 -0.420046 -0.034562
				CHANNELS 3 Zrotation Yrotation Xrotation
				JOINT rtoe
				{
					OFFSET -0.034840 -0.062106 0.130323
					CHANNELS 3 Zrotation Yrotation Xrotation
					End Site
					{
						OFFSET 0.000000 0.000000 0.000000
					}
				}
			}
		}
	}
	JOINT lowerback
	{
		OFFSET 0.004439 0.124404 -0.038385
		CHANNELS 3 Zrotation Yrotation Xrotation
		JOINT upperback
		{
			OFFSET 0.004488 0.137956 0.026820
			CHANNELS 3 Zrotation Yrotation Xrotation
			JOINT chest
			{
				OFFSET -0.002265 0.056032 0.002855
				CHANNELS 3 Zrotation Yrotation Xrotation
				JOINT lowerneck
				{
					OFFSET -0.013390 0.211636 -0.033468
					CHANNELS 3 Zrotation Yrotation Xrotation
					JOINT upperneck
					{
						OFFSET 0.010113 0.088937 0.050410
						CHANNELS 3 Zrotation Yrotation Xrotation
						End Site
						{
							OFFSET 0.000000 0.000000 0.000000
						}
					}
				}
				JOINT lclavicle
				{
					OFFSET 0.071702 0.114000 -0.018898
					CHANNELS 3 Zrotation Yrotation Xrotation
					JOINT lshoulder
					{
						OFFSET 0.122921 0.045205 -0.019046
						CHANNELS 3 Zrotation Yrotation Xrotation
						JOINT lelbow
						{
							OFFSET 0.255332 -0.015649 -0.022946
							CHANNELS 3 Zrotation Yrotation Xrotation
							JOINT lwrist
							{
								OFFSET 0.265709 0.012698 -0.007375
								CHANNELS 3 Zrotation Yrotation Xrotation
								End Site
								{
									OFFSET 0.000000 0.000000 0.000000
								}
							}
						}
					}
				}
				JOINT rclavicle
				{
					OFFSET -0.082954 0.112472 -0.023707
					CHANNELS 3 Zrotation Yrotation Xrotation
					JOINT rshoulder
					{
						OFFSET -0.113228 0.046853 -0.008472
						CHANNELS 3 Zrotation Yrotation Xrotation
						JOINT relbow
						{
							OFFSET -0.260127 -0.014369 -0.031269
							CHANNELS 3 Zrotation Yrotation Xrotation
							JOINT rwrist
							{
								OFFSET -0.269108 0.006794 -0.006027
								CHANNELS 3 Zrotation Yrotation Xrotation
								End Site
								{
									OFFSET 0.000000 0.000000 0.000000
								}
							}
						}
					}
				}
			}
		}
	}
}
MOTION
Frames: 13
Frame Time: 0.033333
-0.449671 0.739093 0.994986 96.486714 5.161739 92.798023 7.653919 -3.895518 -13.316487 -2.572708 -9.366281 15.922358 2.186640 1.422087 -14.491984 0.000000 -0.000000 0.000000 -2.226744 -2.679562 -12.509537 -3.208818 -3.226491 11.897354 8.847363 -3.610860 -1.319834 0.000000 -0.000000 0.000000 -8.616476 11.291199 19.552211 -9.726859 5.395186 9.006325 -4.089128 7.510145 -2.976240 0.517258 14.635417 7.646925 6.209057 8.946023 24.088333 -26.701349 -19.197097 -1.662664 -41.521095 -15.575260 6.594805 20.242888 -28.026795 -31.692093 40.564394 -8.624187 -15.017960 22.841272 33.485701 7.582604 57.646043 37.822306 29.532086 -127.680280 79.909410 -110.466862 -9.175833 18.333983 -20.801824 
-0.449265 0.740179 0.996314 96.219121 5.601243 92.422257 7.934437 -3.497752 -12.369182 -2.327339 -9.417338 14.974939 2.102972 1.240136 -14.199449 0.000000 -0.000000 0.000000 -2.161217 -2.409548 -12.692915 -3.219015 -2.362174 12.901410 9.685418 -2.751088 -0.864039 0.000000 -0.000000 0.000000 -8.871895 11.121342 19.309260 -9.819396 5.301775 9.375064 -4.290234 7.208795 -3.236425 0.126008 15.364888 7.225870 6.383815 9.335732 24.067642 -26.843866 -20.116011 -2.244643 -41.106652 -17.008961 6.434949 20.545900 -27.934688 -31.389613 41.857009 -9.227877 -14.225498 22.567927 32.786669 7.150201 57.463673 37.460592 28.853992 -129.719318 78.034821 -111.863752 -10.784036 17.953614 -21.004781 
-0.449679 0.741903 0.997652 95.938649 6.071939 92.023200 8.267773 -3.055369 -11.599775 -2.182728 -9.570326 14.227644 1.755132 1.075098 -13.840456 0.000000 -0.000000 0.000000 -2.066304 -2.124745 -12.972724 -3.249505 -1.900739 13.971878 10.494413 -1.769320 -0.249992 0.000000 -0.000000 0.000000 -9.193555 10.658536 19.411726 -9.833413 4.876712 9.240432 -4.349730 6.815741 -3.331788 -0.450814 16.250594 6.932262 6.270262 10.002945 23.637976 -27.164730 -20.857993 -1.988488 -40.433472 -17.960975 6.137445 21.575905 -29.097691 -31.056613 41.298951 -10.199065 -13.409394 23.075943 32.080525 7.320840 56.305262 37.004737 27.221137 -130.877397 75.957971 -112.776995 -10.847318 17.965993 -21.752140 
-0.451727 0.743518 0.998938 95.741521 6.639159 92.089218 8.829017 -2.763083 -11.644073 -2.163398 -9.445916 13.973590 1.556173 0.740978 -13.582946 0.000000 -0.000000 0.000000 -1.753844 -1.754351 -13.840154 -3.151916 -1.338079 14.998703 10.923223 -1.672300 0.520512 0.000000 -0.000000 0.000000 -9.553095 10.138802 19.376432 -9.630569 4.264506 8.538316 -4.211942 6.401758 -2.944106 -1.167249 17.045838 6.520813 5.924499 11.024813 23.263221 -26.868801 -21.508413 -2.102036 -40.386569 -19.122344 6.353994 21.922789 -29.909692 -30.137911 42.208196 -10.473366 -12.762054 22.710324 31.247164 7.027917 54.871873 36.344834 25.935927 -133.618987 73.686994 -115.348283 -12.065087 17.660451 -22.691483 
-0.454448 0.746648 1.000170 95.491699 6.876645 92.023265 8.913142 -2.872750 -11.372462 -2.083888 -9.601563 13.299626 1.493710 1.000849 -13.215506 0.000000 -0.000000 0.000000 -1.833133 -1.680956 -14.726791 -3.110365 -1.197950 16.163028 11.831006 -1.498047 1.079400 0.000000 -0.000000 0.000000 -9.900149 9.772045 19.590806 -9.477853 3.495884 8.386419 -4.247107 6.022561 -3.112674 -1.744339 18.080270 6.314508 5.994717 11.528177 22.932325 -25.989868 -22.654569 -2.568332 -40.401003 -19.969856 7.294419 21.026681 -30.085056 -28.924561 43.387480 -10.893344 -12.034392 21.912011 30.514485 6.114040 53.831275 35.045212 25.285494 -136.698365 71.398965 -118.169608 -13.068807 17.589001 -22.801188 
-0.455698 0.749585 1.000759 95.228255 7.257208 91.677229 9.126631 -2.379922 -10.790820 -1.938040 -9.617231 12.773295 1.393419 0.572904 -12.909900 0.000000 -0.000000 0.000000 -1.575667 -1.918205 -15.122117 -3.230908 -1.152237 17.011182 12.223012 -1.154171 1.971193 0.000000 -0.000000 0.000000 -9.915962 9.641970 19.665809 -9.251641 2.787694 8.604139 -4.201791 5.441150 -3.146725 -2.255598 19.005910 6.385053 6.066166 11.985239 22.677307 -24.874771 -24.069661 -3.199138 -40.514729 -20.587059 7.824857 19.677841 -29.788222 -26.557580 42.520650 -11.488015 -12.021820 20.867130 30.089482 5.463985 53.268720 33.846004 24.630540 -140.419803 69.408569 -120.967885 -13.663719 17.320079 -22.870981 
-0.458194 0.753114 1.001837 95.266210 7.347069 91.494153 9.026420 -2.624874 -10.326246 -1.749486 -9.435050 12.050559 1.154972 0.470620 -12.486146 0.000000 -0.000000 0.000000 -1.772060 -2.069034 -15.632784 -3.271608 -1.361717 17.899998 13.533166 -1.083595 2.856974 0.000000 -0.000000 0.000000 -10.087924 9.381924 20.375504 -9.022990 1.707004 8.051693 -4.196933 4.838625 -3.154590 -2.484015 20.084085 6.601919 5.979935 12.252110 22.669823 -24.111131 -25.015650 -3.374316 -40.198145 -21.763113 7.956804 18.230257 -28.899174 -24.297169 40.812642 -12.042302 -11.324672 20.439500 29.486304 5.117621 53.321120 33.027057 24.798052 -142.932924 67.901724 -122.513625 -14.860732 17.016709 -22.606989 
-0.459906 0.756648 1.002130 95.455954 7.582682 91.370478 8.976012 -2.444343 -10.188044 -1.479248 -9.588138 11.841577 0.895948 -0.036519 -12.371885 0.000000 -0.000000 0.000000 -1.766245 -1.861154 -15.986342 -3.398761 -1.346437 18.633377 13.830582 -1.117354 3.299173 0.000000 -0.000000 0.000000 -10.101600 9.095875 20.423041 -8.592821 0.836179 8.190984 -4.235821 4.262169 -3.251827 -2.457522 21.143719 7.109560 5.691204 12.124940 22.443200 -23.900969 -26.296567 -3.135169 -39.339911 -23.063282 7.758110 16.624653 -27.363755 -21.708732 37.030748 -13.126690 -9.771860 20.904468 28.783414 5.343639 52.365552 32.491473 24.152680 -145.177906 67.053687 -123.444278 -15.261353 16.705636 -23.103511 
-0.461984 0.760536 1.002408 96.275496 7.618169 91.331104 8.682405 -2.276409 -10.455235 -1.396617 -9.776372 12.059823 0.852792 -0.750163 -12.232347 0.000000 -0.000000 0.000000 -1.893774 -1.963253 -16.087443 -3.713279 -1.607364 19.105326 13.791901 -1.160050 3.663786 0.000000 -0.000000 0.000000 -9.894272 8.581354 21.167517 -8.286226 -0.435603 7.613994 -4.374826 3.748695 -3.307507 -2.611905 21.807824 7.514632 5.823337 11.885064 22.505512 -23.215458 -27.478213 -3.556681 -38.680475 -24.231175 7.767530 14.251762 -25.004215 -18.249681 32.308810 -13.779765 -5.984549 21.172099 28.336975 5.472554 53.556471 31.161671 24.758556 -144.856863 65.963721 -123.441375 -16.920319 16.102123 -22.840185 
-0.463331 0.764414 1.001944 97.485973 7.577317 91.422515 8.338018 -2.146832 -10.874207 -1.433983 -10.217138 12.402661 0.973326 -1.626660 -12.103411 0.000000 -0.000000 0.000000 -2.012975 -1.903614 -15.950685 -3.858128 -1.833785 19.252065 12.899482 -2.189865 3.383505 0.000000 -0.000000 0.000000 -9.718674 8.301267 21.747769 -7.742857 -1.649124 7.027616 -4.374025 3.426626 -3.398641 -2.597644 21.989835 8.374766 5.863125 11.280509 22.281068 -22.870909 -29.267943 -3.843727 -37.770602 -25.736007 7.650367 11.316003 -21.822424 -13.968445 28.105556 -13.852054 -1.971425 22.101699 28.000145 6.140891 53.834918 29.260942 24.207557 -142.856283 64.334037 -120.879940 -18.068377 15.200801 -23.050735 
-0.464610 0.768236 1.001010 98.967369 7.404462 91.447779 7.895211 -2.203505 -11.303449 -1.575885 -10.903368 12.858468 0.955316 -2.540434 -12.116436 0.000000 -0.000000 0.000000 -2.250074 -2.278930 -15.571124 -4.183351 -3.069799 19.306768 11.917790 -2.854386 2.835816 0.000000 -0.000000 0.000000 -9.523600 8.268769 21.841664 -7.035928 -2.926469 7.595147 -4.286588 2.915045 -3.579919 -2.582441 22.906110 8.789262 5.557478 10.427683 21.767304 -22.454903 -31.351397 -3.518156 -36.686984 -27.171420 7.169978 9.305298 -19.876608 -10.202017 22.092305 -13.704983 0.870143 22.761132 27.555551 6.692802 54.052918 27.913785 22.753733 -140.002841 62.163128 -116.963659 -18.485614 14.070932 -24.091548 
-0.465033 0.771594 1.000253 99.979172 7.104118 91.507109 7.613401 -2.928460 -11.137650 -1.860213 -11.101463 12.336287 1.288582 -2.668837 -11.698726 0.000000 -0.000000 0.000000 -2.536901 -2.403618 -15.245726 -4.432876 -3.819132 19.169618 11.140921 -3.686806 2.551640 0.000000 -0.000000 0.000000 -9.561885 8.262335 21.828836 -6.393676 -3.924949 7.673211 -4.152417 2.369814 -3.323760 -3.067238 23.860975 8.694995 5.231227 9.949557 21.324972 -21.000800 -31.998219 -3.745883 -37.586204 -28.022342 7.683502 8.557644 -20.440685 -7.342402 20.428143 -12.932350 3.056790 22.580631 26.622490 6.298156 55.944807 27.285245 22.426140 -137.442180 59.377744 -114.258239 -19.852478 12.834687 -24.725594 
-0.464971 0.775684 1.000583 100.182068 6.896359 91.459832 7.150125 -2.873694 -11.190980 -1.803275 -10.730496 12.638009 1.279224 -3.412952 -11.877019 0.000000 -0.000000 0.000000 -2.827649 -2.511699 -15.025584 -4.676348 -4.471206 19.164696 11.034858 -3.767874 2.585617 0.000000 -0.000000 0.000000 -9.327675 7.969050 21.564863 -6.216838 -4.055973 8.078297 -4.086390 2.010977 -3.366374 -4.047714 23.768115 8.412941 4.800197 10.363979 21.305355 -21.184557 -31.162344 -3.622403 -39.584946 -27.516854 8.288277 10.837781 -25.132187 -6.254037 19.060532 -12.390757 3.568304 22.612723 25.494569 5.993283 57.409426 26.590314 21.611132 -136.379181 56.032002 -113.481770 -17.919235 12.326624 -25.606508 
